<svg width="28" height="28" viewBox="0 0 28 28" fill="none" xmlns="http://www.w3.org/2000/svg">
<path d="M19.834 3.89915C21.5936 4.91514 23.0574 6.37309 24.0804 8.12866C25.1035 9.88423 25.6502 11.8765 25.6666 13.9084C25.6831 15.9402 25.1685 17.9411 24.174 19.713C23.1795 21.4848 21.7394 22.9662 19.9964 24.0105C18.2534 25.0548 16.2679 25.6258 14.2364 25.6669C12.205 25.708 10.198 25.2178 8.41413 24.2449C6.6303 23.272 5.1315 21.8501 4.0661 20.1199C3.00069 18.3897 2.40563 16.4113 2.33982 14.3805L2.33398 14.0025L2.33982 13.6245C2.40515 11.6096 2.99146 9.6461 4.04156 7.9253C5.09167 6.20451 6.56975 4.78517 8.33169 3.80567C10.0936 2.82618 12.0793 2.31994 14.0952 2.33632C16.111 2.3527 18.0882 2.89114 19.834 3.89915ZM17.5007 15.1691H10.5007C10.1912 15.1691 9.89449 15.2921 9.67569 15.5109C9.4569 15.7296 9.33398 16.0264 9.33398 16.3358V16.3941C9.334 17.5841 9.79143 18.7285 10.6116 19.5906C11.4318 20.4527 12.552 20.9665 13.7405 21.0258L14.0053 21.0316C15.1975 21.023 16.3418 20.5614 17.2062 19.7403C18.0706 18.9192 18.5905 17.8001 18.6603 16.61L18.6673 16.3696C18.6718 16.2136 18.645 16.0583 18.5884 15.9128C18.5318 15.7673 18.4466 15.6347 18.3378 15.5227C18.229 15.4108 18.0989 15.3218 17.9551 15.2611C17.8113 15.2003 17.6567 15.1691 17.5007 15.1691ZM10.5123 9.33581L10.3642 9.34398C10.0689 9.3791 9.79815 9.52565 9.60729 9.75367C9.41644 9.9817 9.31986 10.274 9.33728 10.5709C9.35471 10.8677 9.48483 11.1467 9.70105 11.3508C9.91728 11.555 10.2033 11.6688 10.5007 11.6691L10.6488 11.661C10.9441 11.6259 11.2148 11.4793 11.4057 11.2513C11.5965 11.0233 11.6931 10.731 11.6757 10.4341C11.6583 10.1373 11.5281 9.85827 11.3119 9.65413C11.0957 9.45 10.8097 9.33614 10.5123 9.33581ZM17.5123 9.33581L17.3642 9.34398C17.0689 9.3791 16.7981 9.52565 16.6073 9.75367C16.4164 9.9817 16.3199 10.274 16.3373 10.5709C16.3547 10.8677 16.4848 11.1467 16.7011 11.3508C16.9173 11.555 17.2033 11.6688 17.5007 11.6691L17.6488 11.661C17.9441 11.6259 18.2148 11.4793 18.4057 11.2513C18.5965 11.0233 18.6931 10.731 18.6757 10.4341C18.6583 10.1373 18.5281 9.85827 18.3119 9.65413C18.0957 9.45 17.8097 9.33614 17.5123 9.33581Z" fill="white"/>
</svg>
