<svg width="28" height="28" viewBox="0 0 28 28" fill="none" xmlns="http://www.w3.org/2000/svg">
<path d="M14.0007 11.6693C15.2383 11.6693 16.4253 11.1776 17.3005 10.3024C18.1757 9.42727 18.6673 8.24028 18.6673 7.0026C18.6673 5.76493 18.1757 4.57794 17.3005 3.70277C16.4253 2.8276 15.2383 2.33594 14.0007 2.33594C12.763 2.33594 11.576 2.8276 10.7008 3.70277C9.82565 4.57794 9.33398 5.76493 9.33398 7.0026C9.33398 8.24028 9.82565 9.42727 10.7008 10.3024C11.576 11.1776 12.763 11.6693 14.0007 11.6693ZM6.41732 15.1693C7.19087 15.1693 7.93273 14.862 8.47971 14.315C9.02669 13.768 9.33398 13.0262 9.33398 12.2526C9.33398 11.4791 9.02669 10.7372 8.47971 10.1902C7.93273 9.64323 7.19087 9.33594 6.41732 9.33594C5.64377 9.33594 4.9019 9.64323 4.35492 10.1902C3.80794 10.7372 3.50065 11.4791 3.50065 12.2526C3.50065 13.0262 3.80794 13.768 4.35492 14.315C4.9019 14.862 5.64377 15.1693 6.41732 15.1693ZM24.5007 12.2526C24.5007 13.0262 24.1934 13.768 23.6464 14.315C23.0994 14.862 22.3575 15.1693 21.584 15.1693C20.8104 15.1693 20.0686 14.862 19.5216 14.315C18.9746 13.768 18.6673 13.0262 18.6673 12.2526C18.6673 11.4791 18.9746 10.7372 19.5216 10.1902C20.0686 9.64323 20.8104 9.33594 21.584 9.33594C22.3575 9.33594 23.0994 9.64323 23.6464 10.1902C24.1934 10.7372 24.5007 11.4791 24.5007 12.2526ZM14.0007 12.8359C15.5477 12.8359 17.0315 13.4505 18.1254 14.5445C19.2194 15.6384 19.834 17.1222 19.834 18.6693V25.6693H8.16732V18.6693C8.16732 17.1222 8.7819 15.6384 9.87586 14.5445C10.9698 13.4505 12.4536 12.8359 14.0007 12.8359ZM5.83398 18.6693C5.83398 17.8608 5.95065 17.0803 6.16998 16.3429L5.97165 16.3593C4.97168 16.4691 4.04743 16.9441 3.37612 17.6934C2.70482 18.4426 2.33372 19.4133 2.33398 20.4193V25.6693H5.83398V18.6693ZM25.6673 25.6693V20.4193C25.6674 19.379 25.2706 18.378 24.5577 17.6204C23.8448 16.8629 22.8696 16.4059 21.8313 16.3429C22.0495 17.0803 22.1673 17.8608 22.1673 18.6693V25.6693H25.6673Z" fill="white"/>
</svg>
