<svg width="20" height="20" viewBox="0 0 20 20" fill="none" xmlns="http://www.w3.org/2000/svg">
<path d="M7.53268 17.9474C8.33268 18.1891 9.14102 18.3307 9.99935 18.3307C12.2095 18.3307 14.3291 17.4528 15.8919 15.89C17.4547 14.3271 18.3327 12.2075 18.3327 9.9974C18.3327 8.90305 18.1171 7.81941 17.6983 6.80837C17.2796 5.79732 16.6657 4.87866 15.8919 4.10484C15.1181 3.33102 14.1994 2.71719 13.1884 2.2984C12.1773 1.87961 11.0937 1.66406 9.99935 1.66406C8.905 1.66406 7.82137 1.87961 6.81032 2.2984C5.79927 2.71719 4.88061 3.33102 4.10679 4.10484C2.54399 5.66764 1.66602 7.78726 1.66602 9.9974C1.66602 13.5391 3.89102 16.5807 7.03268 17.7807C6.95768 17.1307 6.88268 16.0557 7.03268 15.3141L7.99102 11.1974C7.99102 11.1974 7.74935 10.7141 7.74935 9.9474C7.74935 8.7974 8.46602 7.93906 9.28268 7.93906C9.99935 7.93906 10.3327 8.46406 10.3327 9.13906C10.3327 9.85573 9.85768 10.8807 9.61602 11.8641C9.47435 12.6807 10.0493 13.3974 10.8827 13.3974C12.366 13.3974 13.516 11.8141 13.516 9.58073C13.516 7.58073 12.0827 6.21406 10.0243 6.21406C7.67435 6.21406 6.29102 7.96406 6.29102 9.80573C6.29102 10.5224 6.52435 11.2474 6.90768 11.7224C6.98268 11.7724 6.98268 11.8391 6.95768 11.9641L6.71602 12.8724C6.71602 13.0141 6.62435 13.0641 6.48268 12.9641C5.41602 12.4974 4.79935 10.9807 4.79935 9.75573C4.79935 7.1224 6.66602 4.73073 10.266 4.73073C13.1327 4.73073 15.366 6.78906 15.366 9.5224C15.366 12.3891 13.591 14.6891 11.0493 14.6891C10.241 14.6891 9.44935 14.2557 9.16602 13.7474L8.60768 15.7224C8.41602 16.4391 7.89102 17.3974 7.53268 17.9724V17.9474Z" fill="#121416"/>
</svg>
