<svg width="17" height="18" viewBox="0 0 17 18" fill="none" xmlns="http://www.w3.org/2000/svg">
<path d="M2.79545 10.75C3.92513 10.75 4.84091 9.85457 4.84091 8.75C4.84091 7.64543 3.92513 6.75 2.79545 6.75C1.66578 6.75 0.75 7.64543 0.75 8.75C0.75 9.85457 1.66578 10.75 2.79545 10.75Z" stroke="#121416" stroke-width="1.5" stroke-linecap="round" stroke-linejoin="round"/>
<path d="M13.7056 4.75C14.8353 4.75 15.7511 3.85457 15.7511 2.75C15.7511 1.64543 14.8353 0.75 13.7056 0.75C12.5759 0.75 11.6602 1.64543 11.6602 2.75C11.6602 3.85457 12.5759 4.75 13.7056 4.75Z" stroke="#121416" stroke-width="1.5" stroke-linecap="round" stroke-linejoin="round"/>
<path d="M13.7056 16.75C14.8353 16.75 15.7511 15.8546 15.7511 14.75C15.7511 13.6454 14.8353 12.75 13.7056 12.75C12.5759 12.75 11.6602 13.6454 11.6602 14.75C11.6602 15.8546 12.5759 16.75 13.7056 16.75Z" stroke="#121416" stroke-width="1.5" stroke-linecap="round" stroke-linejoin="round"/>
<path d="M4.57812 9.73047L11.9222 13.7696M11.9222 3.73047L4.57812 7.76964" stroke="#121416" stroke-width="1.5" stroke-linecap="round" stroke-linejoin="round"/>
</svg>
