<svg width="28" height="28" viewBox="0 0 28 28" fill="none" xmlns="http://www.w3.org/2000/svg">
<g clip-path="url(#clip0_174_1874)">
<path d="M27.1203 25.0521L23.3325 21.2877V6.80546L21.5436 3.51546C21.4116 3.26463 21.2136 3.05461 20.971 2.9081C20.7284 2.76159 20.4503 2.68416 20.1669 2.68416C19.8835 2.68416 19.6055 2.76159 19.3628 2.9081C19.1202 3.05461 18.9222 3.26463 18.7903 3.51546L17.1103 6.81324V15.0966L2.8847 0.941016C2.77591 0.831327 2.63692 0.75652 2.48545 0.726132C2.33398 0.695745 2.17689 0.711154 2.03422 0.770395C1.89154 0.829635 1.76973 0.930024 1.68433 1.05876C1.59893 1.1875 1.5538 1.33875 1.5547 1.49324V7.77768H3.24248V9.02213H1.5547V13.9999H3.24248V15.2444H1.5547V20.4166H3.24248V21.661H1.5547V25.6043C1.5547 25.8106 1.63664 26.0085 1.78251 26.1543C1.92837 26.3002 2.1262 26.3821 2.33248 26.3821H26.568C26.7225 26.383 26.8738 26.3379 27.0025 26.2525C27.1312 26.1671 27.2316 26.0453 27.2909 25.9026C27.3501 25.7599 27.3655 25.6028 27.3351 25.4514C27.3047 25.2999 27.2299 25.1609 27.1203 25.0521ZM7.77692 20.2221V13.1755L14.8314 20.2221H7.77692ZM21.7769 21.8632H18.6658V19.9732H21.7769V21.8632ZM21.7769 18.7521H18.6658V7.19435L20.1747 4.26213L21.7769 7.20213V18.7521Z" fill="white"/>
</g>
<defs>
<clipPath id="clip0_174_1874">
<rect width="28" height="28" fill="white"/>
</clipPath>
</defs>
</svg>
