<svg width="20" height="20" viewBox="0 0 20 20" fill="none" xmlns="http://www.w3.org/2000/svg">
<path d="M18.7165 5.0026C18.0749 5.29427 17.3832 5.48594 16.6665 5.5776C17.3999 5.13594 17.9665 4.43594 18.2332 3.59427C17.5415 4.01094 16.7749 4.3026 15.9665 4.46927C15.3082 3.7526 14.3832 3.33594 13.3332 3.33594C11.3749 3.33594 9.77487 4.93594 9.77487 6.91094C9.77487 7.19427 9.8082 7.46927 9.86654 7.7276C6.89987 7.5776 4.2582 6.1526 2.49987 3.99427C2.19154 4.51927 2.01654 5.13594 2.01654 5.78594C2.01654 7.0276 2.64154 8.1276 3.6082 8.7526C3.01654 8.7526 2.46654 8.58594 1.9832 8.33594V8.36094C1.9832 10.0943 3.21654 11.5443 4.84987 11.8693C4.32548 12.0128 3.77495 12.0327 3.24154 11.9276C3.46788 12.638 3.91115 13.2596 4.50905 13.705C5.10695 14.1505 5.82941 14.3973 6.57487 14.4109C5.31123 15.4113 3.74487 15.952 2.1332 15.9443C1.84987 15.9443 1.56654 15.9276 1.2832 15.8943C2.86654 16.9109 4.74987 17.5026 6.76654 17.5026C13.3332 17.5026 16.9415 12.0526 16.9415 7.3276C16.9415 7.16927 16.9415 7.01927 16.9332 6.86094C17.6332 6.36094 18.2332 5.7276 18.7165 5.0026Z" fill="#121416"/>
</svg>
