<svg width="24" height="19" viewBox="0 0 24 19" fill="none" xmlns="http://www.w3.org/2000/svg">
<path d="M22.8002 2.91433C23.3333 4.99333 23.3333 9.33333 23.3333 9.33333C23.3333 9.33333 23.3333 13.6733 22.8002 15.7523C22.5038 16.9015 21.637 17.8057 20.5392 18.1113C18.5453 18.6667 11.6667 18.6667 11.6667 18.6667C11.6667 18.6667 4.7915 18.6667 2.79417 18.1113C1.69167 17.801 0.826 16.898 0.533167 15.7523C3.47694e-08 13.6733 0 9.33333 0 9.33333C0 9.33333 3.47694e-08 4.99333 0.533167 2.91433C0.8295 1.76517 1.69633 0.861 2.79417 0.555333C4.7915 -2.08616e-07 11.6667 0 11.6667 0C11.6667 0 18.5453 -2.08616e-07 20.5392 0.555333C21.6417 0.865666 22.5073 1.76867 22.8002 2.91433ZM9.33333 13.4167L16.3333 9.33333L9.33333 5.25V13.4167Z" fill="#121416"/>
</svg>
